# xmcd
#
# Track frame offsets:
# 182
# 16695
# 26735
# 36700
# 50282
# 63365
# 77835
# 91037
# 106310
# 121332
# 137520
# 147895
# 163222
# 173370
# 184272
# 197042
# 208167
# 221395
# 232650
# 245510
# 258020
#
# Disc length: 3646 seconds
#
#
# Revision: 0
# Processed by: cddbd v1.4PL0 Copyright (c) Steve Scherf et al.
# Submitted via: FreeRIP 2.35 
#
DISCID=170e3c15
DTITLE=Billie Jo Spears - Country Classics
DYEAR=1900
DGENRE=Country
TTITLE0=Blanket On The Ground
TTITLE1=Snowbird
TTITLE2=Souvenirs And Californian Memories
TTITLE3=Last Rose Of Summer
TTITLE4=Before Your Time
TTITLE5=Heartbreak Hotel
TTITLE6=Your Old Love Letters
TTITLE7=Lovin' Him was Easier (Than Anything I'll Ever Do Again)
TTITLE8=You Could Know As Much About A Stranger
TTITLE9=Slow Movin' outlaw
TTITLE10=Here Comes My Baby Back Again
TTITLE11=Silver Wings And Golden Rings
TTITLE12=I Stayed Long Enough
TTITLE13=Livin' in A House Full Of Love
TTITLE14=Livin' Our Love Together
TTITLE15=I'm Good At What I Do
TTITLE16=It Coulda Been Me
TTITLE17=Come On Home
TTITLE18='57 Chevrolet
TTITLE19=Marty Gray
TTITLE20=Sing Me An Old Fashioned Song
EXTD=Readers Digest Collection
EXTT0=
EXTT1=
EXTT2=
EXTT3=
EXTT4=
EXTT5=
EXTT6=
EXTT7=
EXTT8=
EXTT9=
EXTT10=
EXTT11=
EXTT12=
EXTT13=
EXTT14=
EXTT15=
EXTT16=
EXTT17=
EXTT18=
EXTT19=
EXTT20=
PLAYORDER=
